<svg width="44" height="45" viewBox="0 0 44 45" fill="none" xmlns="http://www.w3.org/2000/svg">
<g clip-path="url(#clip0_395_2262)">
<rect width="44" height="44" transform="translate(0 0.763916)" fill="white"/>
<path d="M44 22.7568C44.0052 34.8776 34.1408 44.7523 22.0174 44.7626C9.87857 44.7742 -0.0128887 34.8815 1.2606e-05 22.7439C0.0129139 10.618 9.88373 0.760047 22.0071 0.763917C34.1318 0.767788 43.9949 10.6321 44 22.7568ZM16.0725 41.3373C16.1099 41.3464 16.1731 41.3722 16.1796 41.3618C16.2144 41.3077 16.1654 41.296 16.1241 41.2844C14.594 39.0744 13.5554 36.6387 12.8407 34.0584C12.7749 33.8197 12.6549 33.812 12.4563 33.8326C11.3222 33.9513 10.1843 34.0481 9.05159 34.1745C8.19494 34.27 7.34087 34.4003 6.43004 34.5228C7.37055 35.782 8.40523 36.8541 9.56377 37.8049C11.5067 39.3983 13.6535 40.62 16.0725 41.3373ZM27.9353 41.3489C31.8521 40.1104 35.0207 37.814 37.5571 34.5641C37.4552 34.5293 37.3971 34.4996 37.3365 34.4919C35.3948 34.2222 33.4493 33.9913 31.496 33.8236C31.2032 33.7978 31.1942 33.9629 31.1425 34.1539C30.7581 35.5807 30.242 36.9586 29.6021 38.2926C29.1028 39.335 28.4655 40.2962 27.8824 41.2896C27.8437 41.2999 27.7921 41.3102 27.8256 41.3631C27.8346 41.3773 27.8979 41.3554 27.9366 41.3502L27.9353 41.3489ZM27.9353 4.17761C27.8966 4.17245 27.8334 4.14923 27.8217 4.16342C27.7843 4.21373 27.8334 4.23051 27.8746 4.24341C29.4138 6.44954 30.4407 8.89047 31.1606 11.4682C31.2277 11.7081 31.3477 11.7133 31.5464 11.6926C32.6804 11.5739 33.817 11.4772 34.951 11.3495C35.809 11.254 36.6617 11.1237 37.5881 10.9998C35.022 7.70999 31.8521 5.41614 27.9366 4.17761H27.9353ZM21.9813 21.5209C24.5525 21.5209 27.1238 21.5118 29.695 21.5312C30.0717 21.5338 30.135 21.4267 30.1233 21.0771C30.0472 18.938 29.7866 16.8209 29.4022 14.7167C29.3467 14.4122 29.2202 14.3452 28.9313 14.3619C27.6643 14.4368 26.3961 14.5167 25.1279 14.5451C21.7852 14.6212 18.4425 14.6032 15.1062 14.3606C14.7553 14.3348 14.6417 14.4445 14.5824 14.7735C14.2095 16.8635 13.9489 18.9625 13.8741 21.0861C13.8612 21.459 13.9618 21.5299 14.3153 21.5273C16.8711 21.5118 19.4256 21.5183 21.9813 21.5183V21.5209ZM22.0303 24.007C19.4423 24.007 16.8556 24.0121 14.2676 24.0005C13.9618 23.9992 13.8638 24.0624 13.8741 24.3914C13.9438 26.5472 14.207 28.6798 14.5953 30.7995C14.6469 31.0846 14.7501 31.1866 15.0572 31.1672C16.3241 31.0872 17.5923 31.0098 18.8605 30.9814C22.2032 30.9066 25.5459 30.9234 28.8822 31.1633C29.2125 31.1866 29.3544 31.1156 29.4163 30.766C29.7815 28.6914 30.0434 26.6079 30.1233 24.5011C30.1388 24.1115 30.0666 23.9928 29.6486 23.9966C27.1096 24.0186 24.5706 24.0083 22.0303 24.0083V24.007ZM22.0019 12.1313C24.1087 12.1158 26.2142 12.0371 28.3197 11.9481C28.6848 11.9326 28.6977 11.8217 28.6074 11.5146C28.2372 10.2477 27.7663 9.02206 27.1418 7.85965C26.4426 6.55662 25.7317 5.25358 24.5409 4.31049C23.8546 3.76606 23.1308 3.30419 22.2135 3.25516C20.9169 3.18679 19.93 3.80476 19.0669 4.67431C17.1394 6.61467 16.1744 9.07238 15.3629 11.6114C15.252 11.961 15.4674 11.93 15.6842 11.9416C17.7884 12.0461 19.8939 12.1197 22.0019 12.1313ZM22.0019 33.3966C19.8952 33.412 17.7897 33.4894 15.6855 33.5798C15.3307 33.5952 15.2984 33.6946 15.3913 34.0094C15.839 35.5408 16.4505 37.0012 17.2478 38.3816C17.9251 39.5556 18.6528 40.6897 19.801 41.4779C20.4602 41.9308 21.1479 42.2804 21.9774 42.2778C23.1927 42.2727 24.1191 41.674 24.9318 40.8561C26.858 38.9157 27.8256 36.4593 28.6371 33.9203C28.7468 33.5759 28.5429 33.5965 28.321 33.5862C26.2168 33.4817 24.1113 33.4069 22.0045 33.3966H22.0019ZM6.93448 21.5209C8.253 21.5209 9.57151 21.5067 10.89 21.5299C11.2668 21.5364 11.3996 21.4718 11.4125 21.0513C11.4719 18.9445 11.7054 16.8532 12.0744 14.7773C12.1879 14.1413 12.1892 14.1426 11.5506 14.0884C9.48507 13.9104 7.4286 13.6562 5.38245 13.3298C5.03927 13.2756 4.87414 13.3647 4.71545 13.6717C3.48724 16.0391 2.76864 18.5484 2.53383 21.2035C2.50416 21.5376 2.65511 21.5235 2.88346 21.5235C4.23423 21.5183 5.585 21.5209 6.93577 21.5209H6.93448ZM37.0152 21.5209C38.3815 21.5209 39.749 21.5222 41.1153 21.5196C41.2882 21.5196 41.4997 21.6022 41.4701 21.2551C41.234 18.5342 40.5012 15.963 39.2136 13.5504C39.1053 13.3466 38.9904 13.2756 38.7647 13.3118C36.5908 13.6614 34.4066 13.922 32.2134 14.1103C31.9244 14.1349 31.7966 14.2071 31.865 14.5425C32.3062 16.7216 32.5191 18.9277 32.5952 21.1454C32.6068 21.477 32.7178 21.5299 33.012 21.5273C34.346 21.5131 35.6812 21.5209 37.0152 21.5209ZM6.96544 24.007C5.59919 24.007 4.23165 24.0121 2.8654 24.0018C2.60608 24.0005 2.51061 24.0405 2.53771 24.3411C2.76477 26.8969 3.44725 29.3159 4.5916 31.6149C4.83672 32.1077 5.08185 32.3412 5.64048 32.149C5.89334 32.0613 6.17846 32.0664 6.44939 32.029C8.21687 31.789 9.98565 31.562 11.7635 31.4201C12.0692 31.3956 12.2111 31.3336 12.1363 30.9647C11.6938 28.8024 11.4848 26.6117 11.41 24.4095C11.3983 24.065 11.2977 23.9941 10.9713 23.9979C9.63731 24.0173 8.30202 24.0057 6.96802 24.0057L6.96544 24.007ZM37.0114 24.007C35.6928 24.007 34.3743 24.0199 33.0558 23.9979C32.7088 23.9928 32.603 24.065 32.5914 24.434C32.5269 26.5576 32.2972 28.6643 31.9244 30.7569C31.8121 31.3865 31.8095 31.3839 32.4559 31.4394C34.5214 31.6162 36.5792 31.8626 38.624 32.198C38.9698 32.2548 39.1298 32.1542 39.2872 31.8497C40.5128 29.481 41.2327 26.973 41.4662 24.3166C41.4972 23.9708 41.3269 24.0044 41.1101 24.0044C39.7439 24.007 38.3763 24.0044 37.0101 24.0044L37.0114 24.007ZM6.43262 10.9805C6.60679 11.0192 6.69839 11.0476 6.79386 11.0592C8.62714 11.2953 10.4617 11.5133 12.3014 11.6875C12.7001 11.7249 12.8201 11.5946 12.9091 11.2475C13.4316 9.21429 14.2611 7.30876 15.3436 5.5129C15.5964 5.0949 15.8609 4.68334 16.1215 4.26921C16.0919 4.23696 16.0635 4.20599 16.0338 4.17374C12.1557 5.43291 8.97805 7.69451 6.43262 10.9779V10.9805Z" fill="black"/>
</g>
<defs>
<clipPath id="clip0_395_2262">
<rect width="44" height="44" fill="white" transform="translate(0 0.763916)"/>
</clipPath>
</defs>
</svg>
