<svg width="25" height="24" viewBox="0 0 25 24" fill="none" xmlns="http://www.w3.org/2000/svg">
<g id="phone">
<path id="Icon" d="M3.65967 5C3.65967 3.89543 4.56349 3 5.67842 3H8.9884C9.42286 3 9.80858 3.27543 9.94597 3.68377L11.4578 8.17721C11.6167 8.64932 11.4009 9.16531 10.9517 9.38787L8.67324 10.5165C9.78581 12.9612 11.7738 14.9308 14.2414 16.033L15.3807 13.7757C15.6053 13.3306 16.1261 13.1169 16.6027 13.2743L21.1382 14.7721C21.5504 14.9082 21.8284 15.2903 21.8284 15.7208V19C21.8284 20.1046 20.9246 21 19.8097 21H18.8003C10.4384 21 3.65967 14.2843 3.65967 6V5Z" stroke="black" stroke-width="2" stroke-linecap="round" stroke-linejoin="round"/>
</g>
</svg>
