<svg width="10" height="10" viewBox="0 0 10 10" fill="none" xmlns="http://www.w3.org/2000/svg">
<path d="M0.415833 9.64941C0.34552 9.58301 0.298645 9.50488 0.275208 9.41504C0.255676 9.3252 0.257629 9.23535 0.281067 9.14551C0.304504 9.05566 0.349426 8.97754 0.415833 8.91113L4.16583 5.15527L0.415833 1.40527C0.349426 1.33887 0.304504 1.26074 0.281067 1.1709C0.261536 1.08105 0.261536 0.991211 0.281067 0.901367C0.304504 0.811523 0.349426 0.733398 0.415833 0.666992C0.482239 0.59668 0.560364 0.551758 0.650208 0.532227C0.740051 0.508789 0.829895 0.508789 0.919739 0.532227C1.01349 0.551758 1.09357 0.59668 1.15997 0.666992L4.90997 4.41699L8.65997 0.666992C8.72638 0.59668 8.8045 0.551758 8.89435 0.532227C8.98419 0.508789 9.07404 0.508789 9.16388 0.532227C9.25372 0.551758 9.3338 0.59668 9.40411 0.666992C9.47052 0.733398 9.51544 0.811523 9.53888 0.901367C9.56232 0.991211 9.56232 1.08105 9.53888 1.1709C9.51544 1.26074 9.47052 1.33887 9.40411 1.40527L5.65411 5.15527L9.40411 8.91113C9.47052 8.97754 9.51349 9.05566 9.53302 9.14551C9.55646 9.23535 9.55646 9.3252 9.53302 9.41504C9.51349 9.50488 9.47052 9.58301 9.40411 9.64941C9.33771 9.71973 9.25763 9.76465 9.16388 9.78418C9.07404 9.80762 8.98419 9.80762 8.89435 9.78418C8.8045 9.76074 8.72638 9.71582 8.65997 9.64941L4.90997 5.89941L1.15997 9.64941C1.09357 9.71582 1.01544 9.76074 0.925598 9.78418C0.835754 9.80762 0.745911 9.80762 0.656067 9.78418C0.566223 9.76074 0.486145 9.71582 0.415833 9.64941Z" fill="white"/>
</svg>
