<svg width="214" height="156" viewBox="0 0 214 156" fill="none" xmlns="http://www.w3.org/2000/svg">
<g style="mix-blend-mode:multiply">
<path d="M73.3921 59.3322H97.4741C98.229 59.3322 98.9594 59.2489 99.6619 59.0977C97.5973 56.5394 95.8871 53.7064 94.5559 50.5802C93.4681 48.0342 92.6977 45.371 92.2386 42.5905H73.3921V59.3322Z" fill="#FCE909"/>
</g>
<g style="mix-blend-mode:multiply">
<path d="M123.205 27.9996C121.445 33.249 118.062 35.6314 117.833 35.8197C118.299 35.9925 126.961 38.4737 126.961 51.648C126.961 52.8515 126.893 53.9872 126.773 55.0673C127.737 55.2062 128.72 55.2772 129.728 55.2772C132.335 55.2772 134.816 54.805 137.155 53.8638C137.244 53.8267 137.333 53.7866 137.423 53.7496V27.9996H123.201H123.205Z" fill="#FCE909"/>
</g>
<g style="mix-blend-mode:multiply">
<path d="M92.6334 27.9997C92.6272 28.0275 92.6395 27.9719 92.6334 27.9997L73.3955 28.0059V12.5664H97.4775C98.4173 12.5664 99.3264 12.6806 100.18 12.8935C100.883 12.0634 101.622 11.261 102.405 10.4895C105.61 7.32938 109.431 4.83894 113.856 2.99657C109.178 0.700557 103.181 0.404297 96.3373 0.404297H64.9121V27.9966H92.6303L92.6334 27.9997Z" fill="#37A8DB"/>
</g>
<g style="mix-blend-mode:multiply">
<path d="M124.253 21.2752C124.253 20.1766 124.194 19.1304 124.086 18.1274C123.485 18.3033 122.891 18.5101 122.305 18.7477C119.966 19.689 117.917 21.016 116.151 22.7195C114.586 24.2409 113.307 25.9968 112.318 28.0028H123.205C123.83 26.1326 124.256 23.9045 124.256 21.2783L124.253 21.2752Z" fill="#37A8DB"/>
</g>
<g style="mix-blend-mode:multiply">
<path d="M110.414 36.3073C110.414 39.0447 110.922 41.566 111.964 43.8836C112.993 46.1889 114.392 48.201 116.148 49.9075C117.917 51.6018 119.963 52.9257 122.302 53.8669C123.741 54.4471 125.229 54.8452 126.773 55.0705C126.893 53.9904 126.961 52.8547 126.961 51.6512C126.961 38.4737 118.296 35.9926 117.834 35.8228C118.062 35.6346 121.445 33.2522 123.205 28.0028H112.318C112.198 28.2466 112.081 28.4935 111.967 28.7435C110.925 31.0487 110.417 33.57 110.417 36.3073H110.414Z" fill="#009434"/>
</g>
<g style="mix-blend-mode:multiply">
<path d="M102.405 62.1314C101.428 61.1716 100.519 60.1563 99.6623 59.0978C98.9597 59.249 98.2294 59.3323 97.4744 59.3323H73.3924V42.5905H92.2389C91.903 40.5568 91.7336 38.4614 91.7336 36.3073C91.7336 33.4281 92.0325 30.6599 92.6303 28.0028H64.9121V72.6146H99.0336C105.44 72.6146 110.978 71.9357 115.396 70.226C115.054 70.1026 114.715 69.973 114.38 69.8372C109.726 67.9794 105.733 65.4056 102.402 62.1314H102.405Z" fill="#0A71B3"/>
</g>
<g style="mix-blend-mode:multiply">
<path d="M18.8465 28.0212V0.4104H0V72.6145H18.8465V42.6552H31.9213V28.0212H18.8465Z" fill="#13235B"/>
</g>
<g style="mix-blend-mode:multiply">
<path d="M46.0686 72.6146H55.4025L55.3809 27.9996L31.9214 28.0212V42.6552H46.0686V72.6146Z" fill="#0D3082"/>
</g>
<g style="mix-blend-mode:multiply">
<path d="M55.3809 27.9996L55.4024 72.6146H64.915V27.9996H55.3809Z" fill="#1A171B"/>
</g>
<g style="mix-blend-mode:multiply">
<path d="M106.811 20.2414C106.811 16.7758 104.017 13.8502 100.177 12.8966C97.8751 15.6123 95.9985 18.6552 94.5563 22.0313C93.7459 23.9261 93.0926 25.9753 92.6304 27.9997L97.4714 27.9133C102.63 27.9133 106.808 24.4785 106.808 20.2414H106.811Z" fill="#37A8DB"/>
</g>
<g style="mix-blend-mode:multiply">
<path d="M124.087 18.1274C125.889 17.5966 127.769 17.3343 129.732 17.3343C132.339 17.3343 134.819 17.8065 137.158 18.7477C139.485 19.6889 141.559 21.0159 143.352 22.7194C144.951 24.2409 146.243 25.9968 147.235 28.0027H166.907C166.516 26.2653 165.998 24.5742 165.351 22.9324C163.348 23.5156 161.231 23.8335 159.037 23.8335C146.563 23.8335 136.45 13.7051 136.45 1.21281C136.45 0.972103 136.459 0.731392 136.468 0.493767C134.296 0.166646 132.052 0 129.732 0C124.136 0 119.024 0.928899 114.383 2.77744C114.204 2.84842 114.032 2.92865 113.856 3.00272C119.569 5.80793 123.285 10.653 124.087 18.1274Z" fill="#009F95"/>
</g>
<g style="mix-blend-mode:multiply">
<path d="M137.158 53.8669C134.819 54.8081 132.338 55.2803 129.732 55.2803C128.724 55.2803 127.738 55.2093 126.776 55.0705C125.898 63.0386 121.846 67.7325 115.399 70.2229C119.769 71.8215 124.542 72.6115 129.732 72.6115C132.394 72.6115 134.958 72.3955 137.426 71.9665V53.7496C137.337 53.7867 137.247 53.8299 137.158 53.8638V53.8669Z" fill="#36A862"/>
</g>
<g style="mix-blend-mode:multiply">
<path d="M99.6625 59.0977C103.764 58.2151 106.812 54.9069 106.812 50.9598C106.812 46.3369 102.63 42.5905 97.4746 42.5905H92.2422C92.7013 45.371 93.4717 48.0373 94.5595 50.5802C95.8907 53.7064 97.5978 56.5394 99.6655 59.0977H99.6625Z" fill="#96BD0D"/>
</g>
<path d="M159.037 23.8335C161.227 23.8335 163.344 23.5156 165.351 22.9324C165.23 22.63 165.11 22.3306 164.981 22.0313C163.098 17.6244 160.479 13.7792 157.098 10.4926C153.727 7.20592 149.709 4.63524 145.031 2.77436C142.319 1.7035 139.466 0.944337 136.471 0.493774C136.464 0.734486 136.452 0.972111 136.452 1.21282C136.452 13.7051 146.566 23.8335 159.04 23.8335H159.037Z" fill="#E1007A"/>
<g style="mix-blend-mode:multiply">
<path d="M159.037 23.8335C161.227 23.8335 163.344 23.5156 165.351 22.9324C165.23 22.63 165.11 22.3306 164.981 22.0313C163.098 17.6244 160.479 13.7792 157.098 10.4926C153.727 7.20592 149.709 4.63524 145.031 2.77436C142.319 1.7035 139.466 0.944337 136.471 0.493774C136.464 0.734486 136.452 0.972111 136.452 1.21282C136.452 13.7051 146.566 23.8335 159.04 23.8335H159.037Z" fill="#1A171B"/>
</g>
<g style="mix-blend-mode:multiply">
<path d="M100.177 12.8966C104.016 13.8502 106.811 16.7757 106.811 20.2414C106.811 24.4785 102.63 27.9133 97.4742 27.9133L92.6331 27.9997C92.627 28.0274 92.6393 27.9719 92.6331 27.9997H112.318C113.307 25.9937 114.586 24.2378 116.151 22.7164C117.92 21.0098 119.966 19.6859 122.305 18.7446C122.89 18.5101 123.485 18.3033 124.086 18.1243C123.285 10.6499 119.569 5.80485 113.855 2.99963C109.43 4.83892 105.606 7.33244 102.405 10.4925C101.622 11.261 100.882 12.0633 100.18 12.8966H100.177Z" fill="#0A71B3"/>
</g>
<g style="mix-blend-mode:multiply">
<path d="M126.773 55.0705C125.232 54.8483 123.744 54.4471 122.302 53.8669C119.963 52.9257 117.914 51.5987 116.148 49.9075C114.395 48.201 112.996 46.1889 111.963 43.8836C110.922 41.566 110.413 39.0447 110.413 36.3073C110.413 33.57 110.922 31.0487 111.963 28.7435C112.074 28.4935 112.195 28.2466 112.315 28.0028H92.6301C92.0323 30.6599 91.7334 33.4312 91.7334 36.3073C91.7334 38.4645 91.9029 40.5599 92.2388 42.5905H97.4712C102.63 42.5905 106.808 46.337 106.808 50.9599C106.808 54.9069 103.761 58.2152 99.659 59.0978C100.513 60.1563 101.422 61.1716 102.402 62.1314C105.733 65.4056 109.726 67.9763 114.379 69.8372C114.715 69.973 115.054 70.0995 115.396 70.226C121.843 67.7325 125.895 63.0417 126.773 55.0736V55.0705Z" fill="#1A171B"/>
</g>
<path d="M55.381 27.9996V0.4104H46.3799V28.0089L55.381 27.9996Z" fill="#13235B"/>
<g style="mix-blend-mode:multiply">
<path d="M166.904 27.9996C167.501 30.6567 167.8 33.428 167.8 36.3042C167.8 41.4116 166.861 46.1733 164.978 50.5802C163.613 53.7835 161.859 56.6813 159.711 59.289V72.6454H182V27.9996H166.901H166.904Z" fill="#E2001A"/>
</g>
<g style="mix-blend-mode:multiply">
<path d="M137.426 53.7527C139.644 52.8177 141.626 51.537 143.352 49.9075C145.145 48.201 146.556 46.1889 147.586 43.8836C148.615 41.566 149.136 39.0447 149.136 36.3073C149.136 33.57 148.615 31.0487 147.586 28.7435C147.475 28.4935 147.354 28.2466 147.234 28.0028H137.426V53.7527Z" fill="#F19300"/>
</g>
<g style="mix-blend-mode:multiply">
<path d="M159.714 59.289C161.862 56.6844 163.616 53.7835 164.981 50.5802C166.863 46.1733 167.803 41.4116 167.803 36.3042C167.803 33.4249 167.504 30.6567 166.907 27.9996H159.714V59.289Z" fill="#1A171B"/>
</g>
<g style="mix-blend-mode:multiply">
<path d="M147.234 27.9996C147.354 28.2434 147.475 28.4903 147.586 28.7403C148.615 31.0456 149.136 33.5669 149.136 36.3042C149.136 39.0415 148.615 41.5628 147.586 43.8804C146.556 46.1857 145.145 48.1978 143.352 49.9044C141.629 51.5307 139.644 52.8145 137.426 53.7496V71.9665C140.073 71.5067 142.606 70.7969 145.028 69.8371C149.709 67.9793 153.727 65.4056 157.095 62.1313C158.026 61.2271 158.898 60.2766 159.714 59.289V27.9996H147.234Z" fill="#13235B"/>
</g>
<path d="M46.0686 42.6553H31.9214V72.6115H46.0686V42.6553Z" fill="#DEDA00"/>
<path d="M136.467 0.493792C139.463 0.944354 142.316 1.70661 145.028 2.77438C149.709 4.63217 153.727 7.20593 157.095 10.4926C160.479 13.7792 163.098 17.6244 164.978 22.0313C165.104 22.3306 165.227 22.63 165.347 22.9324C174.749 20.1951 181.621 11.511 181.621 1.21284C181.621 0.941268 181.608 0.672783 181.599 0.404297H136.471C136.471 0.435157 136.467 0.462932 136.464 0.493792H136.467Z" fill="#E1007A"/>
<path d="M64.912 0.4104H55.3809V28.0027H64.912V0.4104Z" fill="#00632E"/>
<path d="M9.19214 28.0275H0V72.6146H9.19214V28.0275Z" fill="#0D3082"/>
<path d="M31.921 42.6614H18.8462V72.6114H31.921V42.6614Z" fill="#FCE909"/>
<path d="M19.1855 105.836H23.965C25.1822 105.836 26.1405 106.172 26.7506 106.78C27.2221 107.252 27.4656 107.833 27.4656 108.549V108.579C27.4656 109.86 26.7352 110.545 25.9433 110.959C27.1913 111.385 28.0603 112.101 28.0603 113.551V113.582C28.0603 115.486 26.4918 116.507 24.119 116.507H19.1886V105.836H19.1855ZM25.592 108.854C25.592 108.015 24.9233 107.496 23.7184 107.496H21.0252V110.332H23.5829C24.7846 110.332 25.592 109.86 25.592 108.885V108.854ZM23.9927 111.919H21.0252V114.844H24.1314C25.4102 114.844 26.1867 114.341 26.1867 113.381V113.35C26.1867 112.452 25.4718 111.919 23.9958 111.919H23.9927Z" fill="black"/>
<path d="M29.7368 105.836H37.6347V107.512H31.6073V110.286H36.9506V111.962H31.6073V114.829H37.7118V116.504H29.7368V105.833V105.836Z" fill="black"/>
<path d="M39.4435 105.836H44.1921C45.5326 105.836 46.5803 106.231 47.2675 106.904C47.8314 107.484 48.1488 108.277 48.1488 109.206V109.237C48.1488 110.99 47.098 112.042 45.6219 112.468L48.5001 116.507H46.2783L43.659 112.789H41.314V116.507H39.4404V105.836H39.4435ZM44.0565 111.125C45.397 111.125 46.2475 110.425 46.2475 109.342V109.311C46.2475 108.169 45.4247 107.543 44.0411 107.543H41.3171V111.125H44.0565Z" fill="black"/>
<path d="M49.2334 111.203V111.172C49.2334 108.169 51.5476 105.654 54.8202 105.654C58.0927 105.654 60.3761 108.138 60.3761 111.141V111.172C60.3761 114.174 58.0619 116.689 54.7894 116.689C51.5168 116.689 49.2334 114.205 49.2334 111.203ZM58.4101 111.203V111.172C58.4101 109.098 56.9033 107.376 54.7863 107.376C52.6693 107.376 51.1932 109.067 51.1932 111.141V111.172C51.1932 113.245 52.7001 114.952 54.8171 114.952C56.9341 114.952 58.4101 113.276 58.4101 111.203Z" fill="black"/>
<path d="M62.1016 105.836H69.9995V107.512H63.972V110.286H69.3154V111.962H63.972V114.829H70.0765V116.504H62.1016V105.833V105.836Z" fill="black"/>
<path d="M71.8058 105.836H76.0059C78.5019 105.836 80.055 107.252 80.055 109.403V109.434C80.055 111.826 78.1383 113.076 75.7933 113.076H73.6763V116.504H71.8027V105.833L71.8058 105.836ZM75.8549 111.385C77.2693 111.385 78.1537 110.591 78.1537 109.48V109.45C78.1537 108.2 77.257 107.546 75.8549 107.546H73.6794V111.388H75.8549V111.385Z" fill="black"/>
<path d="M80.6924 114.952L81.8171 113.61C82.8371 114.495 83.8725 114.998 85.1821 114.998C86.3377 114.998 87.068 114.449 87.068 113.656V113.625C87.068 112.863 86.6428 112.452 84.6645 111.993C82.3965 111.443 81.1176 110.774 81.1176 108.808V108.777C81.1176 106.947 82.6399 105.682 84.7538 105.682C86.3069 105.682 87.5395 106.154 88.6211 107.024L87.6165 108.441C86.6582 107.725 85.6998 107.342 84.7261 107.342C83.6291 107.342 82.9912 107.907 82.9912 108.607V108.638C82.9912 109.462 83.4781 109.826 85.5334 110.314C87.786 110.863 88.9416 111.672 88.9416 113.44V113.471C88.9416 115.467 87.3731 116.656 85.1359 116.656C83.5089 116.656 81.9712 116.091 80.6924 114.949V114.952Z" fill="black"/>
<path d="M89.9492 111.203V111.172C89.9492 108.169 92.2634 105.654 95.536 105.654C98.8086 105.654 101.092 108.138 101.092 111.141V111.172C101.092 114.174 98.7777 116.689 95.5052 116.689C92.2326 116.689 89.9492 114.205 89.9492 111.203ZM99.1259 111.203V111.172C99.1259 109.098 97.6191 107.376 95.5052 107.376C93.3913 107.376 91.9121 109.067 91.9121 111.141V111.172C91.9121 113.245 93.419 114.952 95.536 114.952C97.653 114.952 99.129 113.276 99.129 111.203H99.1259Z" fill="black"/>
<path d="M102.818 105.836H104.553L110.26 113.215V105.836H112.103V116.507H110.534L104.658 108.916V116.507H102.815V105.836H102.818Z" fill="black"/>
<path d="M114.367 105.836H118.339C121.689 105.836 124 108.138 124 111.141V111.172C124 114.174 121.686 116.507 118.339 116.507H114.367V105.836ZM116.241 107.543V114.798H118.342C120.58 114.798 122.04 113.289 122.04 111.199V111.169C122.04 109.079 120.58 107.539 118.342 107.539H116.241V107.543Z" fill="black"/>
<path d="M125.695 105.836H133.593V107.512H127.565V110.286H132.909V111.962H127.565V114.829H133.67V116.504H125.695V105.833V105.836Z" fill="black"/>
<path d="M135.399 105.836H140.147C141.488 105.836 142.535 106.231 143.223 106.904C143.786 107.484 144.107 108.277 144.107 109.206V109.237C144.107 110.99 143.056 112.042 141.58 112.468L144.455 116.507H142.233L139.614 112.789H137.269V116.507H135.396V105.836H135.399ZM140.012 111.125C141.352 111.125 142.203 110.425 142.203 109.342V109.311C142.203 108.169 141.38 107.543 139.996 107.543H137.272V111.125H140.012Z" fill="black"/>
<path d="M144.652 105.836H146.677L149.219 113.745L151.838 105.805H153.422L156.042 113.745L158.584 105.836H160.547L156.849 116.582H155.219L152.6 108.916L149.98 116.582H148.366L144.652 105.836Z" fill="black"/>
<path d="M161.813 105.836H163.687V116.507H161.813V105.836Z" fill="black"/>
<path d="M164.802 114.937L166.035 113.656C166.661 114.465 167.283 114.921 168.18 114.921C169.184 114.921 169.868 114.252 169.868 112.817V105.836H171.801V112.878C171.801 114.144 171.421 115.088 170.796 115.714C170.17 116.341 169.274 116.659 168.207 116.659C166.565 116.659 165.499 115.896 164.799 114.937H164.802Z" fill="black"/>
<path d="M173.098 114.952L174.225 113.61C175.245 114.495 176.281 114.998 177.59 114.998C178.746 114.998 179.476 114.449 179.476 113.656V113.625C179.476 112.863 179.051 112.452 177.073 111.993C174.805 111.443 173.526 110.774 173.526 108.808V108.777C173.526 106.947 175.048 105.682 177.162 105.682C178.715 105.682 179.948 106.154 181.029 107.024L180.025 108.441C179.067 107.725 178.108 107.342 177.134 107.342C176.037 107.342 175.4 107.907 175.4 108.607V108.638C175.4 109.462 175.886 109.826 177.942 110.314C180.194 110.863 181.35 111.672 181.35 113.44V113.471C181.35 115.467 179.781 116.656 177.544 116.656C175.914 116.656 174.38 116.091 173.101 114.949L173.098 114.952Z" fill="black"/>
<path d="M18.8184 121.794H21.7859V132.465H18.8184V121.794Z" fill="black"/>
<path d="M22.8926 127.157V127.126C22.8926 124.016 25.2807 121.578 28.5102 121.578C30.6857 121.578 32.0878 122.491 33.0307 123.803L30.809 125.525C30.1988 124.763 29.4993 124.275 28.4794 124.275C26.9879 124.275 25.9371 125.54 25.9371 127.096V127.126C25.9371 128.728 26.9879 129.978 28.4794 129.978C29.5918 129.978 30.2451 129.46 30.8829 128.682L33.1047 130.268C32.1001 131.654 30.7443 132.675 28.3869 132.675C25.3424 132.675 22.8926 130.342 22.8926 127.157Z" fill="black"/>
<path d="M36.5837 124.383H33.3882V121.791H42.7344V124.383H39.5389V132.462H36.5868V124.383H36.5837Z" fill="black"/>
<path d="M46.9927 127.157V127.126C46.9927 124.062 49.4579 121.578 52.7459 121.578C56.0338 121.578 58.4682 124.031 58.4682 127.096V127.126C58.4682 130.191 56.003 132.675 52.715 132.675C49.4271 132.675 46.9927 130.222 46.9927 127.157ZM55.4545 127.157V127.126C55.4545 125.587 54.3421 124.244 52.715 124.244C51.088 124.244 50.0218 125.556 50.0218 127.096V127.126C50.0218 128.666 51.1342 130.006 52.7459 130.006C54.3575 130.006 55.4545 128.694 55.4545 127.154V127.157Z" fill="black"/>
<path d="M59.5283 121.794H64.0951C66.7884 121.794 68.5232 123.183 68.5232 125.543V125.574C68.5232 128.089 66.5911 129.416 63.941 129.416H62.4804V132.465H59.5283V121.794ZM63.8825 127.099C64.9333 127.099 65.5712 126.549 65.5712 125.71V125.679C65.5712 124.766 64.9333 124.278 63.8671 124.278H62.4835V127.099H63.8825Z" fill="black"/>
<path d="M69.2506 121.794H72.2027V129.873H77.3612V132.465H69.2476V121.794H69.2506Z" fill="black"/>
<path d="M77.9619 121.794H86.5316V124.309H80.8863V125.926H86.0016V128.259H80.8863V129.95H86.6086V132.465H77.965V121.794H77.9619Z" fill="black"/>
<path d="M87.9214 121.794H90.8889V132.465H87.9214V121.794Z" fill="black"/>
<path d="M92.4604 121.794H96.5712C100.377 121.794 102.583 123.988 102.583 127.068V127.099C102.583 130.179 100.346 132.465 96.5096 132.465H92.4604V121.794ZM96.6143 129.842C98.38 129.842 99.551 128.867 99.551 127.145V127.114C99.551 125.408 98.38 124.417 96.6143 124.417H95.4125V129.842H96.6143Z" fill="black"/>
<path d="M103.689 121.794H106.657V132.465H103.689V121.794Z" fill="black"/>
<path d="M108.229 121.794H110.983L115.368 127.435V121.794H118.29V132.465H115.701L111.15 126.611V132.465H108.229V121.794Z" fill="black"/>
<path d="M119.374 127.157V127.126C119.374 124.016 121.809 121.578 125.112 121.578C126.986 121.578 128.308 122.158 129.435 123.133L127.701 125.222C126.939 124.584 126.178 124.216 125.128 124.216C123.59 124.216 122.403 125.512 122.403 127.142V127.173C122.403 128.895 123.605 130.129 125.294 130.129C126.009 130.129 126.557 129.978 126.998 129.688V128.392H124.896V126.228H129.796V131.03C128.668 131.959 127.103 132.675 125.168 132.675C121.849 132.675 119.368 130.388 119.368 127.157H119.374Z" fill="black"/>
<path d="M131.167 121.794H139.737V124.309H134.092V125.926H139.207V128.259H134.092V129.95H139.814V132.465H131.171V121.794H131.167Z" fill="black"/>
<path d="M141.09 121.794H143.845L148.23 127.435V121.794H151.151V132.465H148.562L144.011 126.611V132.465H141.09V121.794Z" fill="black"/>
<path d="M19.3984 89.881H20.1904V94.8186H27.0098V89.881H27.8017V100.553H27.0098V95.5531H20.1904V100.553H19.3984V89.881Z" fill="black"/>
<path d="M29.9185 95.2445V95.2136C29.9185 92.3035 32.0632 89.6958 35.2926 89.6958C38.522 89.6958 40.6359 92.2726 40.6359 95.1828V95.2136C40.6359 98.1238 38.4912 100.731 35.2618 100.731C32.0324 100.731 29.9185 98.1546 29.9185 95.2445ZM39.8132 95.2445V95.2136C39.8132 92.5782 37.8965 90.4118 35.2618 90.4118C32.6271 90.4118 30.7412 92.5442 30.7412 95.1828V95.2136C30.7412 97.8491 32.6579 100.016 35.2926 100.016C37.9273 100.016 39.8132 97.88 39.8132 95.2445Z" fill="black"/>
<path d="M42.229 95.2445V95.2136C42.229 92.3313 44.3152 89.6958 47.4953 89.6958C49.2302 89.6958 50.3272 90.2143 51.3903 91.0969L50.8726 91.6925C50.0345 90.9611 49.0607 90.4118 47.4491 90.4118C44.8606 90.4118 43.0518 92.6059 43.0518 95.1828V95.2136C43.0518 97.9726 44.7712 100.031 47.6186 100.031C48.9744 100.031 50.2378 99.4662 51.0113 98.812V95.7475H47.4491V95.0161H51.7724V99.1329C50.8141 99.9878 49.3226 100.735 47.5877 100.735C44.2227 100.735 42.229 98.2503 42.229 95.2476V95.2445Z" fill="black"/>
<path d="M54.1357 89.881H61.7163V90.6124H54.9277V94.8033H61.0322V95.5347H54.9277V99.8181H61.7933V100.549H54.1388V89.8779L54.1357 89.881Z" fill="black"/>
<path d="M63.4854 89.881H67.9597C69.2693 89.881 70.3201 90.2914 70.958 90.9333C71.4603 91.4363 71.7654 92.1523 71.7654 92.9146V92.9454C71.7654 94.7292 70.4403 95.7506 68.6438 95.9944L72.1598 100.553H71.1552L67.7625 96.1333H64.2773V100.553H63.4854V89.881ZM67.8703 95.4143C69.6514 95.4143 70.9765 94.5162 70.9765 92.9763V92.9454C70.9765 91.5135 69.8517 90.6124 67.9166 90.6124H64.2773V95.4143H67.8703Z" fill="black"/>
</svg>
